<?xml version="1.0" encoding="UTF-8" standalone="no"?><!DOCTYPE svg PUBLIC "-//W3C//DTD SVG 1.1//EN" "http://www.w3.org/Graphics/SVG/1.1/DTD/svg11.dtd"><svg width="100%" height="100%" viewBox="0 0 255 268" version="1.1" xmlns="http://www.w3.org/2000/svg" xmlns:xlink="http://www.w3.org/1999/xlink" xml:space="preserve" xmlns:serif="http://www.serif.com/" style="fill-rule:evenodd;clip-rule:evenodd;stroke-linejoin:round;stroke-miterlimit:2;"><rect id="yeater_food_2a" x="0.071" y="0.957" width="254.8" height="266.1" style="fill:none;"/><g><g><path d="M154.779,68.698c2.322,-0.215 3.533,-0.879 3.119,-2.199c-0.446,-1.168 0.625,-1.539 2.277,-1.605c1.438,0.209 2.549,0.064 2.259,-1.592c0.044,-1.033 0.414,-1.482 1.337,-0.942c1.049,0.244 1.844,0.113 1.469,-0.834c-0.25,-0.631 -0.645,-1.249 -1.594,-1.262c-0.5,-0.081 -0.948,-0.348 -1.253,-1.133c-0.722,-1.07 -2.593,-1.382 -2.643,-2.613c-0.025,-0.616 -0.566,-1.01 -1.591,-1.219c-0.799,0.654 -1.63,0.642 -2.48,0.208c-0.763,-1.126 -1.373,-0.737 -1.932,0.161c-0.631,0.794 -1.452,0.823 -2.433,0.203c-0.798,-0.917 -1.275,-0.658 -1.606,0.135c0.133,0.805 -0.049,1.439 -0.492,1.931c-0.639,0.66 -0.657,1.365 -0.529,2.08c0.115,0.857 -0.077,1.673 -0.621,2.441c-0.096,1.1 0.332,1.772 2.012,1.422c1.134,-0.337 1.733,0.013 1.686,1.192c-0.27,0.929 -0.441,1.844 -0.092,2.68c0.243,0.298 0.504,0.245 0.783,-0.193c0.315,-0.61 0.702,-0.661 1.143,-0.281c0.272,0.657 0.665,1.13 1.181,1.42Z" style="fill:#7c9f30;"/><path d="M154.779,67.698c2.322,-0.215 3.533,-0.879 3.119,-2.199c-0.446,-1.168 0.625,-1.539 2.277,-1.605c1.438,0.209 2.549,0.064 2.259,-1.592c0.044,-1.033 0.414,-1.482 1.337,-0.942c1.049,0.244 1.844,0.113 1.469,-0.834c-0.25,-0.631 -0.645,-1.249 -1.594,-1.262c-0.5,-0.081 -0.948,-0.348 -1.253,-1.133c-0.722,-1.07 -2.593,-1.382 -2.643,-2.613c-0.025,-0.616 -0.566,-1.01 -1.591,-1.219c-0.799,0.654 -1.63,0.642 -2.48,0.208c-0.763,-1.126 -1.373,-0.737 -1.932,0.161c-0.631,0.794 -1.452,0.823 -2.433,0.203c-0.798,-0.917 -1.275,-0.658 -1.606,0.135c0.133,0.805 -0.049,1.439 -0.492,1.931c-0.639,0.66 -0.657,1.365 -0.529,2.08c0.115,0.857 -0.077,1.673 -0.621,2.441c-0.096,1.1 0.332,1.772 2.012,1.422c1.134,-0.337 1.733,0.013 1.686,1.192c-0.27,0.929 -0.441,1.844 -0.092,2.68c0.243,0.298 0.504,0.245 0.783,-0.193c0.315,-0.61 0.702,-0.661 1.143,-0.281c0.272,0.657 0.665,1.13 1.181,1.42Z" style="fill:#9bc04b;"/></g></g></svg>