<?xml version="1.0" encoding="UTF-8" standalone="no"?><!DOCTYPE svg PUBLIC "-//W3C//DTD SVG 1.1//EN" "http://www.w3.org/Graphics/SVG/1.1/DTD/svg11.dtd"><svg width="100%" height="100%" viewBox="0 0 393 484" version="1.1" xmlns="http://www.w3.org/2000/svg" xmlns:xlink="http://www.w3.org/1999/xlink" xml:space="preserve" xmlns:serif="http://www.serif.com/" style="fill-rule:evenodd;clip-rule:evenodd;stroke-linejoin:round;stroke-miterlimit:2;"><rect id="yeater_bod" x="0" y="0" width="392.684" height="483.379" style="fill:none;"/><g id="midbod"><path d="M148.652,128c-18.902,5.557 -31.113,11.608 -29,25c-7.905,5.258 -13.784,12.79 -17,21c-5.828,2.071 -10.361,7.393 -13,15c-2.955,1.66 -5.435,3.82 -6,8c-1.266,3.74 -7,14 -7,14c-0.783,5.473 -0.02,6.137 1,6c2.836,-0.488 8.382,-7.656 14,-15c0.458,4.558 1.925,5.013 4,3c0.515,-0.685 0.829,-2.821 1,-6c5.401,-0.616 9.995,-3.119 14,-7c2.324,-2.244 4.416,-4.79 6,-8c14.017,-15.691 13.749,-18.9 18,-25l7,6l8,1l18,-26l-9,-14l-10,2Z" style="fill:#95563a;"/><clipPath id="_clip1"><path d="M148.652,128c-18.902,5.557 -31.113,11.608 -29,25c-7.905,5.258 -13.784,12.79 -17,21c-5.828,2.071 -10.361,7.393 -13,15c-2.955,1.66 -5.435,3.82 -6,8c-1.266,3.74 -7,14 -7,14c-0.783,5.473 -0.02,6.137 1,6c2.836,-0.488 8.382,-7.656 14,-15c0.458,4.558 1.925,5.013 4,3c0.515,-0.685 0.829,-2.821 1,-6c5.401,-0.616 9.995,-3.119 14,-7c2.324,-2.244 4.416,-4.79 6,-8c14.017,-15.691 13.749,-18.9 18,-25l7,6l8,1l18,-26l-9,-14l-10,2Z"/></clipPath><g clip-path="url(#_clip1)"><path d="M75.03,217.316c5.821,-12.143 12.027,-24.846 18.2,-28.039l-4.015,-3.804l-13.682,11.914l-0.503,19.929Z" style="fill:#fff;fill-opacity:0.37;"/><path d="M156.669,126c-11.431,3.325 -32.05,11.222 -38.058,26.284l-6.959,-3.876l25.602,-22.408l19.415,0Z" style="fill:#fff;fill-opacity:0.37;"/><path d="M121.652,154.472c-11.253,8.918 -11.268,13.737 -16.536,21.345c-3.704,0.828 -7.265,3.294 -10.74,6.746l-6.319,-4.746l30.056,-25.852l3.539,2.507Z" style="fill:#fff;fill-opacity:0.37;"/><path d="M89.652,189c0.344,5.02 2.95,9.234 10.388,9.461c5.992,-1.734 9.007,-4.708 11.612,-7.461c-11.278,4.741 -16.283,-0.234 -15.322,-13.183c-2.828,3.067 -5.081,6.625 -6.678,11.183Z" style="fill:#f2f2f2;"/></g><path d="M161.714,123.704c0.127,-0.529 0.108,-2.031 -0.024,-4.283c0,0 -8.935,0.498 -9.816,-0.857c-1.128,-1.737 -0.826,-6.825 -0.826,-6.825l0.826,-6.143c-1.453,-0.144 -3.333,-1.065 -2.847,-2.106c1.001,-2.144 1.645,-3.457 3.297,-4.881c0,0 -1.346,-3.805 -0.916,-5.161c2.327,-6.028 6.474,-10.591 12.227,-13.86c7.687,-2.724 13.484,-1.028 18.665,2.11c5.256,4.11 6.935,9.32 6.532,15.17c-0.344,5.094 -1.843,9.144 -4.041,12.561c0.304,3.965 0.194,7.998 1.051,10.221l-2.829,10.676l-21.299,-6.622Z" style="fill:#95563a;"/><clipPath id="_clip2"><path d="M161.714,123.704c0.127,-0.529 0.108,-2.031 -0.024,-4.283c0,0 -8.935,0.498 -9.816,-0.857c-1.128,-1.737 -0.826,-6.825 -0.826,-6.825l0.826,-6.143c-1.453,-0.144 -3.333,-1.065 -2.847,-2.106c1.001,-2.144 1.645,-3.457 3.297,-4.881c0,0 -1.346,-3.805 -0.916,-5.161c2.327,-6.028 6.474,-10.591 12.227,-13.86c7.687,-2.724 13.484,-1.028 18.665,2.11c5.256,4.11 6.935,9.32 6.532,15.17c-0.344,5.094 -1.843,9.144 -4.041,12.561c0.304,3.965 0.194,7.998 1.051,10.221l-2.829,10.676l-21.299,-6.622Z"/></clipPath><g clip-path="url(#_clip2)"><path d="M157.702,75.204c10.593,9.988 15.932,18.539 16.147,25.859c0.018,0.597 18.173,-3.468 23.109,-2.097l5.555,-9.519l-27.24,-20.024l-17.571,5.781Z" style="fill:#56443d;"/><path id="_-Curve-" serif:id="(Curve)" d="M148.1,106.042c2.432,-3.38 4.905,-6.127 7.427,-8.094c-1.381,-1.596 -4.097,-0.863 -5.912,-0.642c4.106,-5.608 8.876,-10.254 14.365,-13.2c4.528,-1.88 9.154,-2.701 13.865,-2.622l-4.298,-8.632l-14.678,7.313l-14.877,17.681l4.957,2.832l-0.849,5.364Z" style="fill:#fff;fill-opacity:0.37;"/></g><path d="M155.001,214.465c1.549,-0.952 4.171,11.527 4.171,11.527l50.145,-18.736l-1.382,-6.67l-20.696,3.067c0,0 -33.787,11.765 -32.238,10.812Z" style="fill:#fff;"/><path d="M149.355,127.135c2.551,-2.499 6.31,-4.265 11.249,-5.315c16.016,6.32 24.606,5.974 25.283,-3.514c3.128,-0.627 5.579,-0.544 7.668,-0.082c6.053,6.967 11.362,14.022 15.934,21.162c1.54,24.355 -5.21,40.644 -1.006,61.946c-23.141,3.089 -41.365,7.912 -52.828,15.118c-5.369,-16.123 -9.771,-33.439 -14.252,-51.278c12.201,-18.092 16.051,-31.451 7.952,-38.037Z" style="fill:#c22300;"/><clipPath id="_clip3"><path d="M149.355,127.135c2.551,-2.499 6.31,-4.265 11.249,-5.315c16.016,6.32 24.606,5.974 25.283,-3.514c3.128,-0.627 5.579,-0.544 7.668,-0.082c6.053,6.967 11.362,14.022 15.934,21.162c1.54,24.355 -5.21,40.644 -1.006,61.946c-23.141,3.089 -41.365,7.912 -52.828,15.118c-5.369,-16.123 -9.771,-33.439 -14.252,-51.278c12.201,-18.092 16.051,-31.451 7.952,-38.037Z"/></clipPath><g clip-path="url(#_clip3)"><path d="M139.887,170.485c23.238,-21.315 21.764,-40.018 11.565,-47.246l-5.518,0.749l-10.671,42.002l4.624,4.495Z" style="fill:#fff;"/><path d="M186.5,112.663c19.306,20.69 24.759,38.89 25.497,42.389l12.475,-14.882l-31.815,-29.424l-6.157,1.917Z" style="fill:#fff;"/><path d="M155.714,123.239c23.714,9.866 34.806,8.09 33.798,-7.243l-1.305,-6.142l-36.316,8.003l3.823,5.382Z" style="fill:#fff;"/><g><path d="M159.399,169.972l-7.525,-4.334l1.624,-1.424l4.965,3.174l0.03,-0.026l-2.498,-5.337l1.624,-1.424l3.314,8.026l3.969,4.526l-1.534,1.345l-3.969,-4.526Z" style="fill:#fff;fill-rule:nonzero;"/><path d="M159.721,158.987l5.002,-3.458l1.091,1.58l-3.323,2.297l2.377,3.439l2.896,-2.002l1.092,1.579l-2.896,2.002l2.378,3.438l3.323,-2.297l1.16,1.678l-5.001,3.457l-8.099,-11.713Z" style="fill:#fff;fill-rule:nonzero;"/><path d="M172.297,156.059l-0.036,0.018l1.372,5.074l1.832,-0.898l-3.168,-4.194Zm-2.576,-3.303l1.526,-0.748l9.121,11.388l-1.831,0.898l-1.886,-2.484l-2.496,1.223l0.808,3.012l-1.832,0.898l-3.41,-14.187Z" style="fill:#fff;fill-rule:nonzero;"/><path d="M178.067,151.352l-2.26,0.68l-0.553,-1.838l6.474,-1.948l0.553,1.839l-2.26,0.68l3.549,11.797l-1.953,0.588l-3.55,-11.798Z" style="fill:#fff;fill-rule:nonzero;"/><path d="M184.842,147.527l6.068,-0.38l0.12,1.916l-4.032,0.253l0.262,4.171l3.513,-0.22l0.12,1.916l-3.513,0.221l0.261,4.171l4.032,-0.252l0.128,2.036l-6.068,0.38l-0.891,-14.212Z" style="fill:#fff;fill-rule:nonzero;"/><path d="M196.755,154.078l1.136,0.236c0.352,0.073 0.643,0.082 0.872,0.028c0.229,-0.055 0.418,-0.162 0.567,-0.322c0.149,-0.16 0.271,-0.369 0.366,-0.629c0.094,-0.259 0.178,-0.565 0.251,-0.918c0.073,-0.352 0.118,-0.666 0.134,-0.942c0.017,-0.276 -0.017,-0.521 -0.102,-0.736c-0.085,-0.215 -0.229,-0.392 -0.432,-0.529c-0.203,-0.137 -0.487,-0.244 -0.853,-0.32l-1.038,-0.215l-0.901,4.347Zm-0.706,-6.641l3.212,0.666c2.35,0.487 3.242,2.095 2.676,4.824c-0.168,0.809 -0.44,1.478 -0.815,2.006c-0.375,0.528 -0.919,0.902 -1.632,1.122l0.834,6.811l-2.115,-0.438l-0.625,-6.339l-1.195,-0.248l-1.235,5.953l-1.997,-0.414l2.892,-13.943Z" style="fill:#fff;fill-rule:nonzero;"/></g><g><path d="M167.721,183.395l-0.877,-4.259l1.774,-3.263l8.21,-1.691l3.164,2.49l1.563,7.591l-6.954,10.988l0.328,1.592l4.498,-0.927l-0.462,-2.244l4.266,-0.879l1.513,7.343l-12.944,2.666l-1.819,-8.831l6.819,-11.135l-0.698,-3.393l-4.518,0.93l0.431,2.093l-4.294,0.929Z" style="fill:#fff;"/><path d="M184.554,180.152l-0.912,-4.428l1.802,-3.317l8.285,-1.706l3.063,2.411l1.751,8.501l-0.853,1.571l1.353,1.065l1.988,9.655l-1.87,3.441l-8.402,1.731l-2.977,-2.343l-0.883,-4.285l4.371,-0.9l0.443,2.147l4.489,-0.924l-1.254,-6.085l-4.313,0.888l-1.08,-5.246l4.275,-0.881l-1.059,-5.141l-4.377,0.901l0.431,2.094l-4.271,0.851Z" style="fill:#fff;"/></g><path d="M211.929,146.416l-5.039,6.014c0.276,10.383 -0.741,17.138 -2.393,22.112c-0.995,9.073 -1.738,18.192 1.879,28.112l5.471,-0.653l4.407,-54.062" style="fill:#110f00;fill-opacity:0.37;"/></g></g><g id="lowbod"><path d="M285.928,335.416c-13.823,-11.032 -26.998,-19.39 -41.581,-23.659c-11.53,-9.827 -19.82,-22.769 -30.638,-36.661l21.634,-24.533c9.374,14.035 16.138,28.516 21.42,43.607c15.052,1.883 25.809,13.575 36.028,29.436l-6.863,11.81Z" style="fill:#95563a;"/><clipPath id="_clip4"><path d="M285.928,335.416c-13.823,-11.032 -26.998,-19.39 -41.581,-23.659c-11.53,-9.827 -19.82,-22.769 -30.638,-36.661l21.634,-24.533c9.374,14.035 16.138,28.516 21.42,43.607c15.052,1.883 25.809,13.575 36.028,29.436l-6.863,11.81Z"/></clipPath><g clip-path="url(#_clip4)"><path d="M258.867,292.216c13.697,7.342 24.951,19.048 33.983,34.726l4.416,-4.371l-26.332,-32.357l-26.189,-39.848l-11.049,7.19c8.172,7.807 16.908,21.494 22.652,30.276l2.519,4.384Z" style="fill:#fff;fill-opacity:0.37;"/></g><path d="M173.962,279.831c8.578,16.324 18.492,32.121 29.642,47.431c8.047,16.571 19.067,29.739 34.197,42.678l9.531,-9.299c-7.173,-12.72 -15.97,-27.412 -27.278,-39.618c-5.223,-15.472 -8.649,-28.878 -14.46,-44.501l-31.632,3.309Z" style="fill:#95563a;"/><clipPath id="_clip5"><path d="M173.962,279.831c8.578,16.324 18.492,32.121 29.642,47.431c8.047,16.571 19.067,29.739 34.197,42.678l9.531,-9.299c-7.173,-12.72 -15.97,-27.412 -27.278,-39.618c-5.223,-15.472 -8.649,-28.878 -14.46,-44.501l-31.632,3.309Z"/></clipPath><g clip-path="url(#_clip5)"><path d="M217.001,321.001c11.66,10.353 22.131,22.139 29.688,37.945l4.311,-2.732l-21.772,-35.585l-20.63,-42.99l-7.38,2.446c6.444,5.469 14.396,33.298 15.783,40.916Z" style="fill:#fff;fill-opacity:0.37;"/></g><path d="M155.669,225.731c-0.536,9.426 2.325,18.147 7.211,30.934c2.097,5.49 7.902,14.307 7.15,25.976c32.851,1.095 37.536,-2.409 41.278,-6.954c11.891,4.935 20.908,-6.991 29.134,-23.556c-6.885,-6.218 -11.631,-13.715 -14.664,-22.236c-3.219,-12.866 -8.182,-22.82 -17.553,-25.412c-17.316,3.804 -35.243,10.617 -52.556,21.248Z" style="fill:#c22300;"/><clipPath id="_clip6"><path d="M155.669,225.731c-0.536,9.426 2.325,18.147 7.211,30.934c2.097,5.49 7.902,14.307 7.15,25.976c32.851,1.095 37.536,-2.409 41.278,-6.954c11.891,4.935 20.908,-6.991 29.134,-23.556c-6.885,-6.218 -11.631,-13.715 -14.664,-22.236c-3.219,-12.866 -8.182,-22.82 -17.553,-25.412c-17.316,3.804 -35.243,10.617 -52.556,21.248Z"/></clipPath><g clip-path="url(#_clip6)"><path d="M211.766,277.603c-2.483,-8.604 -8.19,-16.878 -14.95,-25.045c2.574,-7.878 0.992,-17.596 -3.857,-25.969c6.233,6.805 9.916,15.898 9.394,24.754c6.838,8.304 11.095,17.181 13.788,26.513l-4.375,-0.253Z" style="fill-opacity:0.37;"/></g><path d="M234.965,369.434l16.214,18.456l10.037,-14.285l-14.538,-16.636c-6.589,1.016 -10.951,4.636 -11.713,12.465Z" style="fill:#fff;"/><clipPath id="_clip7"><path d="M234.965,369.434l16.214,18.456l10.037,-14.285l-14.538,-16.636c-6.589,1.016 -10.951,4.636 -11.713,12.465Z"/></clipPath><g clip-path="url(#_clip7)"><path d="M247.396,388.716c1.377,-10.123 5.309,-18.536 10.849,-21.441l7.838,5.767l-13.382,24.225l-5.305,-8.551Z" style="fill-opacity:0.37;"/></g><g><path d="M249.838,391.509c10.566,6.192 17.62,12.296 20.929,18.303c6.277,8.94 12.225,12.766 17.933,12.851l-14.964,-44.424c-2.974,-2.837 -5.413,-3.257 -9.788,-3.227c-0.677,-1.121 -3.109,-2.613 -4.506,-3.138c-7.387,3.185 -10.271,9.984 -9.604,19.635Z" style="fill:#fff;"/><path d="M277.775,380.719c-6.16,-6.255 -14.239,-1.918 -11.054,8.847c2.836,8.619 6.31,17.109 11.187,25.312c5.101,8.162 10.458,11.218 16.26,5.369c1.801,-3.305 2.35,-8.597 -0.633,-16.498c-0.676,-1.944 -7.632,-6.283 -10.23,-9.109c-3.304,-3.595 -3.416,-9.928 -5.53,-13.921Z" style="fill:#c22300;"/><clipPath id="_clip8"><path d="M277.775,380.719c-6.16,-6.255 -14.239,-1.918 -11.054,8.847c2.836,8.619 6.31,17.109 11.187,25.312c5.101,8.162 10.458,11.218 16.26,5.369c1.801,-3.305 2.35,-8.597 -0.633,-16.498c-0.676,-1.944 -7.632,-6.283 -10.23,-9.109c-3.304,-3.595 -3.416,-9.928 -5.53,-13.921Z"/></clipPath><g clip-path="url(#_clip8)"><path d="M274.663,383.986c-1.466,-2.971 -5.78,-1.437 -3.957,2.666c2.347,7.609 5.779,15.555 11.877,24.33c3.853,5.543 8.856,0.076 4.984,-4.135c-6.055,-6.584 -10.167,-14.316 -12.904,-22.861Z" style="fill:#fff;"/></g></g><path d="M293.282,321.63c-7.426,0.122 -12.204,3.327 -11.278,13.176c5.392,5.79 9.587,9.715 13.681,13.482l9.952,-15.292c-3.965,-3.917 -8.093,-7.698 -12.355,-11.366Z" style="fill:#fff;"/><clipPath id="_clip9"><path d="M293.282,321.63c-7.426,0.122 -12.204,3.327 -11.278,13.176c5.392,5.79 9.587,9.715 13.681,13.482l9.952,-15.292c-3.965,-3.917 -8.093,-7.698 -12.355,-11.366Z"/></clipPath><g clip-path="url(#_clip9)"><path d="M289.062,346.714c3.344,-8.395 8.292,-14.423 14.185,-19.054l6.299,6.218l-16.168,19.707l-4.316,-6.871Z" style="fill-opacity:0.37;"/></g><g><path d="M292.405,349.403c0.022,-10.326 4.423,-16.577 12.572,-17.635c2.535,-0.2 4.786,0.221 6.843,1.068l1.522,21.876l-1.897,28.001c-3.491,0.264 -4.096,-4.97 -8.546,-17.648c-2.216,-6.312 -7.212,-11.483 -10.494,-15.662Z" style="fill:#fff;"/><path d="M306.531,333.709c-3.249,1.574 -4.695,4.537 -3.332,9.664c1.324,3.59 2.852,7.153 4.699,10.674c1.589,4.771 2.295,9.892 1.252,15.708c-0.78,8.073 0.365,11.477 2.266,13.05c2.802,1.15 5.336,-1.713 8.545,-5.167c2.787,-5.582 3.045,-16.047 2.064,-24.547c-0.709,-6.614 -3.514,-13.462 -5.966,-17.507c-2.689,-2.515 -5.699,-3.783 -9.528,-1.875Z" style="fill:#c22300;"/><clipPath id="_clip10"><path d="M306.531,333.709c-3.249,1.574 -4.695,4.537 -3.332,9.664c1.324,3.59 2.852,7.153 4.699,10.674c1.589,4.771 2.295,9.892 1.252,15.708c-0.78,8.073 0.365,11.477 2.266,13.05c2.802,1.15 5.336,-1.713 8.545,-5.167c2.787,-5.582 3.045,-16.047 2.064,-24.547c-0.709,-6.614 -3.514,-13.462 -5.966,-17.507c-2.689,-2.515 -5.699,-3.783 -9.528,-1.875Z"/></clipPath><g clip-path="url(#_clip10)"><path d="M312.551,339.557c-1.295,-3.221 -5.715,-1.272 -4.428,3.183c3.752,8.205 5.481,14.905 5.852,20.595c0.391,5.986 6.356,3.323 5.861,0.533c-1.346,-7.583 -3.278,-15.448 -7.285,-24.311Z" style="fill:#fff;"/></g></g></g><path d="M355.62,474.268l-48.101,-69.422l10.563,-6.235l37.538,75.657Z" style="fill:#fff;fill-opacity:0.37;"/><path d="M314.349,472.259l-26.747,-35.109l8.934,-5.273l17.813,40.382Z" style="fill:#fff;fill-opacity:0.37;"/><path d="M365.336,437.621l-35.151,-51.111l7.387,-4.36l27.764,55.471Z" style="fill:#fff;fill-opacity:0.37;"/></svg>