<?xml version="1.0" encoding="UTF-8" standalone="no"?><!DOCTYPE svg PUBLIC "-//W3C//DTD SVG 1.1//EN" "http://www.w3.org/Graphics/SVG/1.1/DTD/svg11.dtd"><svg width="100%" height="100%" viewBox="0 0 256 267" version="1.1" xmlns="http://www.w3.org/2000/svg" xmlns:xlink="http://www.w3.org/1999/xlink" xml:space="preserve" xmlns:serif="http://www.serif.com/" style="fill-rule:evenodd;clip-rule:evenodd;stroke-linejoin:round;stroke-miterlimit:2;"><rect id="yeater_food_2c" x="0.871" y="0.147" width="254.8" height="266.1" style="fill:none;"/><g><g><path d="M144.319,57.822c3.428,-1.59 7.043,-1.089 8.066,1.118c1.023,2.207 -0.931,5.289 -4.359,6.878c-3.429,1.59 -7.044,1.089 -8.067,-1.118c-1.023,-2.207 0.931,-5.289 4.36,-6.878Z" style="fill:#bf373f;"/><path d="M143.775,56.65c3.429,-1.589 7.044,-1.088 8.067,1.118c1.022,2.207 -0.931,5.289 -4.36,6.878c-3.429,1.59 -7.043,1.089 -8.066,-1.118c-1.023,-2.206 0.931,-5.288 4.359,-6.878Z" style="fill:#d82d37;"/></g><g><path d="M159.238,48.269c3.019,2.274 4.281,5.698 2.817,7.64c-1.463,1.943 -5.102,1.674 -8.121,-0.601c-3.018,-2.274 -4.281,-5.698 -2.817,-7.64c1.464,-1.943 5.103,-1.673 8.121,0.601Z" style="fill:#bf373f;"/><path d="M160.015,47.237c3.019,2.275 4.281,5.698 2.817,7.641c-1.463,1.942 -5.102,1.673 -8.121,-0.601c-3.018,-2.275 -4.28,-5.698 -2.817,-7.641c1.464,-1.942 5.103,-1.673 8.121,0.601Z" style="fill:#d82d37;"/></g></g></svg>