<?xml version="1.0" encoding="UTF-8" standalone="no"?><!DOCTYPE svg PUBLIC "-//W3C//DTD SVG 1.1//EN" "http://www.w3.org/Graphics/SVG/1.1/DTD/svg11.dtd"><svg width="100%" height="100%" viewBox="0 0 256 267" version="1.1" xmlns="http://www.w3.org/2000/svg" xmlns:xlink="http://www.w3.org/1999/xlink" xml:space="preserve" xmlns:serif="http://www.serif.com/" style="fill-rule:evenodd;clip-rule:evenodd;stroke-linejoin:round;stroke-miterlimit:2;"><rect id="yeater_arm" x="0.747" y="0" width="254.8" height="266.124" style="fill:none;"/><path id="MOVEARM" d="M120.375,121.833c2.663,-1.444 6.193,-2.76 11.933,-3.75c3.437,-3.776 6.823,-5.447 10.187,-6.139c0.897,-6.478 5.143,-12.74 11.538,-18.863c3.344,-6.917 7.149,-13.344 11.47,-19.224c-0.689,-1.447 -1.169,-3.885 -0.597,-11.322c-1.687,-2.077 -2.761,-4.039 -3.194,-5.879c-0.54,-3.481 0.815,-4.406 2.962,-4.262c1.811,0.295 3.514,3.007 6.013,5.697c4.677,-4.273 3.963,-8.747 3.562,-13.209c-0.554,-4.234 -1.861,-7.558 -3.664,-10.281c0.143,-1.886 1.11,-2.462 2.712,-2.029c5.144,4.713 5.85,11.574 6.432,17.991l-2.597,19.459c-1.321,3.683 -2.789,6.307 -4.361,8.172c-2.021,9.616 -4.605,19.469 -8.395,29.828c-3.839,5.414 -8.2,10.624 -13.595,15.429c-3.633,10.109 -8.784,16.428 -14.818,20.544c-3.71,2.53 -7.459,3.803 -10.584,4.253l-9.651,-15.351c-2.439,-4.708 1.53,-9.374 4.647,-11.064Z" style="fill:#95563a;"/><clipPath id="_clip1"><path d="M120.375,121.833c2.663,-1.444 6.193,-2.76 11.933,-3.75c3.437,-3.776 6.823,-5.447 10.187,-6.139c0.897,-6.478 5.143,-12.74 11.538,-18.863c3.344,-6.917 7.149,-13.344 11.47,-19.224c-0.689,-1.447 -1.169,-3.885 -0.597,-11.322c-1.687,-2.077 -2.761,-4.039 -3.194,-5.879c-0.54,-3.481 0.815,-4.406 2.962,-4.262c1.811,0.295 3.514,3.007 6.013,5.697c4.677,-4.273 3.963,-8.747 3.562,-13.209c-0.554,-4.234 -1.861,-7.558 -3.664,-10.281c0.143,-1.886 1.11,-2.462 2.712,-2.029c5.144,4.713 5.85,11.574 6.432,17.991l-2.597,19.459c-1.321,3.683 -2.789,6.307 -4.361,8.172c-2.021,9.616 -4.605,19.469 -8.395,29.828c-3.839,5.414 -8.2,10.624 -13.595,15.429c-3.633,10.109 -8.784,16.428 -14.818,20.544c-3.71,2.53 -7.459,3.803 -10.584,4.253l-9.651,-15.351c-2.439,-4.708 1.53,-9.374 4.647,-11.064Z"/></clipPath><g clip-path="url(#_clip1)"><path d="M130.371,117.836c1.381,0.008 2.806,0.189 4.334,0.778c0.926,-2.106 3.305,-4.209 6.495,-6.67c1.176,-0.13 2.439,-0.284 3.034,0.408c1.601,-6.157 5.019,-12.097 11.945,-17.62c1.522,-5.018 4.849,-10.03 8.809,-15.04c-0.398,-1.792 -0.494,-3.663 -0.133,-5.656c1.546,-3.288 2.504,-7.135 2.915,-11.502c-1.769,0.909 -3.46,0.912 -5.119,0.541l-25.076,46.035l-7.204,8.726Z" style="fill:#fff;fill-opacity:0.37;"/></g></svg>