<?xml version="1.0" encoding="UTF-8" standalone="no"?><!DOCTYPE svg PUBLIC "-//W3C//DTD SVG 1.1//EN" "http://www.w3.org/Graphics/SVG/1.1/DTD/svg11.dtd"><svg width="100%" height="100%" viewBox="0 0 256 267" version="1.1" xmlns="http://www.w3.org/2000/svg" xmlns:xlink="http://www.w3.org/1999/xlink" xml:space="preserve" xmlns:serif="http://www.serif.com/" style="fill-rule:evenodd;clip-rule:evenodd;stroke-linejoin:round;stroke-miterlimit:2;"><rect id="yeater_food" x="0.7" y="0.05" width="254.8" height="266.1" style="fill:none;"/><g><g><path d="M157.289,44.975c-2.085,-0.585 -5.099,0.467 -6.727,2.346l-11.453,13.224c-1.628,1.879 -1.258,3.881 0.826,4.466l15.523,4.356c2.084,0.585 5.098,-0.466 6.726,-2.346l11.454,-13.223c1.628,-1.88 1.258,-3.881 -0.827,-4.466l-15.522,-4.357Z" style="fill:#7c4c37;"/><path d="M172.907,47.323l1.621,3.497l-4.624,-0.009l3.003,-3.488Z" style="fill:#7c4c37;"/><path d="M136.562,60.028l1.874,4.041l3.364,-3.331l-5.238,-0.71Z" style="fill:#7c4c37;"/><path d="M155.606,41.346c-2.084,-0.585 -5.098,0.466 -6.726,2.346l-11.453,13.224c-1.629,1.879 -1.258,3.881 0.826,4.466l15.523,4.356c2.084,0.585 5.098,-0.466 6.726,-2.346l11.453,-13.223c1.629,-1.88 1.258,-3.881 -0.826,-4.466l-15.523,-4.357Z" style="fill:#ebccbe;"/></g><g><path d="M144.147,57.724c3.429,-1.589 7.043,-1.088 8.066,1.119c1.023,2.206 -0.93,5.288 -4.359,6.878c-3.429,1.589 -7.043,1.088 -8.066,-1.118c-1.023,-2.207 0.93,-5.289 4.359,-6.879Z" style="fill:#bf373f;"/><path d="M143.604,56.553c3.429,-1.59 7.043,-1.089 8.066,1.118c1.023,2.206 -0.93,5.288 -4.359,6.878c-3.429,1.59 -7.043,1.089 -8.066,-1.118c-1.023,-2.207 0.93,-5.289 4.359,-6.878Z" style="fill:#d82d37;"/></g><g><path d="M155.828,67.698c2.322,-0.215 3.533,-0.879 3.119,-2.199c-0.446,-1.168 0.625,-1.539 2.278,-1.605c1.437,0.209 2.548,0.064 2.258,-1.592c0.044,-1.033 0.414,-1.482 1.337,-0.942c1.049,0.244 1.844,0.113 1.469,-0.834c-0.25,-0.631 -0.645,-1.249 -1.593,-1.262c-0.501,-0.081 -0.949,-0.348 -1.254,-1.134c-1.114,-1.649 -2.753,-2.642 -4.234,-3.831l-6.395,9.773c-0.27,0.929 -0.441,1.844 -0.092,2.68c0.243,0.298 0.504,0.245 0.783,-0.193c0.315,-0.61 0.702,-0.661 1.143,-0.281c0.272,0.657 0.665,1.13 1.181,1.42Z" style="fill:#7c9f30;"/><path d="M155.407,66.791c2.323,-0.215 3.534,-0.879 3.12,-2.199c-0.447,-1.168 0.624,-1.54 2.277,-1.605c1.438,0.208 2.548,0.064 2.258,-1.592c0.044,-1.033 0.414,-1.483 1.337,-0.943c1.05,0.245 1.845,0.113 1.469,-0.834c-0.25,-0.63 -0.644,-1.249 -1.593,-1.261c-0.5,-0.081 -0.949,-0.348 -1.253,-1.134c-1.115,-1.65 -2.753,-2.642 -4.235,-3.831l-6.394,9.773c-0.27,0.929 -0.442,1.843 -0.093,2.68c0.244,0.297 0.504,0.245 0.784,-0.193c0.315,-0.61 0.701,-0.661 1.143,-0.281c0.271,0.656 0.665,1.13 1.18,1.42Z" style="fill:#9bc04b;"/></g><g><path d="M161.868,58.017c3.726,-2.362 8.178,-4.439 11.247,-4.769c-1.029,-1.928 -3.639,-2.977 -5.701,-3.579" style="fill:#bcb43c;"/><path d="M161.448,57.109c3.726,-2.361 8.177,-4.439 11.246,-4.768c-1.028,-1.928 -3.638,-2.977 -5.701,-3.579" style="fill:#efe65a;"/></g><g><path d="M154.918,39.862c-2.084,-0.585 -5.098,0.466 -6.726,2.346l-11.454,13.223c-1.628,1.88 -1.258,3.881 0.826,4.466l15.523,4.357c2.084,0.585 5.099,-0.466 6.727,-2.346l11.453,-13.224c1.628,-1.879 1.258,-3.881 -0.826,-4.466l-15.523,-4.356Z" style="fill:#7c4c37;"/><path d="M170.536,42.209l1.621,3.497l-4.624,-0.009l3.003,-3.488Z" style="fill:#7c4c37;"/><path d="M134.192,54.914l1.873,4.041l3.365,-3.331l-5.238,-0.71Z" style="fill:#7c4c37;"/><path d="M153.236,36.233c-2.084,-0.585 -5.098,0.466 -6.727,2.346l-11.453,13.223c-1.628,1.88 -1.258,3.881 0.826,4.466l15.523,4.357c2.084,0.585 5.098,-0.467 6.726,-2.346l11.454,-13.224c1.628,-1.879 1.258,-3.881 -0.826,-4.466l-15.523,-4.356Z" style="fill:#ebccbe;"/></g></g></svg>