<?xml version="1.0" encoding="UTF-8" standalone="no"?><!DOCTYPE svg PUBLIC "-//W3C//DTD SVG 1.1//EN" "http://www.w3.org/Graphics/SVG/1.1/DTD/svg11.dtd"><svg width="100%" height="100%" viewBox="0 0 256 267" version="1.1" xmlns="http://www.w3.org/2000/svg" xmlns:xlink="http://www.w3.org/1999/xlink" xml:space="preserve" xmlns:serif="http://www.serif.com/" style="fill-rule:evenodd;clip-rule:evenodd;stroke-linejoin:round;stroke-miterlimit:2;"><rect id="yeater_food_3" x="0.406" y="0.523" width="254.8" height="266.1" style="fill:none;"/><g><g><path d="M156.994,45.449c-2.084,-0.585 -5.098,0.466 -6.726,2.346l-11.453,13.223c-1.629,1.88 -1.259,3.881 0.826,4.466l15.522,4.357c2.085,0.585 5.099,-0.466 6.727,-2.346l11.453,-13.223c1.628,-1.88 1.258,-3.881 -0.826,-4.466l-15.523,-4.357Z" style="fill:#7c4c37;"/><path d="M172.612,47.796l1.621,3.497l-4.624,-0.009l3.003,-3.488Z" style="fill:#7c4c37;"/><path d="M136.268,60.502l1.873,4.04l3.365,-3.331l-5.238,-0.709Z" style="fill:#7c4c37;"/><path d="M155.312,41.82c-2.084,-0.585 -5.098,0.466 -6.727,2.346l-11.453,13.223c-1.628,1.88 -1.258,3.881 0.826,4.466l15.523,4.357c2.084,0.585 5.098,-0.466 6.727,-2.346l11.453,-13.224c1.628,-1.879 1.258,-3.881 -0.826,-4.466l-15.523,-4.356Z" style="fill:#ebccbe;"/></g></g></svg>