<?xml version="1.0" encoding="UTF-8" standalone="no"?><!DOCTYPE svg PUBLIC "-//W3C//DTD SVG 1.1//EN" "http://www.w3.org/Graphics/SVG/1.1/DTD/svg11.dtd"><svg width="100%" height="100%" viewBox="0 0 256 267" version="1.1" xmlns="http://www.w3.org/2000/svg" xmlns:xlink="http://www.w3.org/1999/xlink" xml:space="preserve" xmlns:serif="http://www.serif.com/" style="fill-rule:evenodd;clip-rule:evenodd;stroke-linejoin:round;stroke-miterlimit:2;"><rect id="yeater_arm" x="0.747" y="0" width="254.8" height="266.124" style="fill:none;"/><g><g><path d="M157.289,44.928c-2.085,-0.585 -5.099,0.466 -6.727,2.346l-11.453,13.223c-1.628,1.88 -1.258,3.881 0.826,4.466l15.523,4.357c2.084,0.585 5.098,-0.466 6.726,-2.346l11.454,-13.223c1.628,-1.88 1.258,-3.881 -0.827,-4.466l-15.522,-4.357Z" style="fill:#7c4c37;"/><path d="M172.907,47.276l1.621,3.496l-4.624,-0.009l3.003,-3.487Z" style="fill:#7c4c37;"/><path d="M136.562,59.981l1.874,4.041l3.364,-3.332l-5.238,-0.709Z" style="fill:#7c4c37;"/><path d="M155.606,41.299c-2.084,-0.585 -5.098,0.466 -6.726,2.346l-11.453,13.223c-1.629,1.88 -1.258,3.881 0.826,4.466l15.523,4.357c2.084,0.585 5.098,-0.466 6.726,-2.346l11.453,-13.223c1.629,-1.88 1.258,-3.881 -0.826,-4.466l-15.523,-4.357Z" style="fill:#ebccbe;"/></g><g><path d="M144.147,57.677c3.429,-1.589 7.043,-1.088 8.066,1.118c1.023,2.207 -0.93,5.289 -4.359,6.879c-3.429,1.589 -7.043,1.088 -8.066,-1.119c-1.023,-2.206 0.93,-5.288 4.359,-6.878Z" style="fill:#bf373f;"/><path d="M143.604,56.505c3.429,-1.589 7.043,-1.088 8.066,1.119c1.023,2.206 -0.93,5.288 -4.359,6.878c-3.429,1.589 -7.043,1.088 -8.066,-1.118c-1.023,-2.207 0.93,-5.289 4.359,-6.879Z" style="fill:#d82d37;"/></g><g><path d="M155.828,67.651c2.322,-0.215 3.533,-0.879 3.119,-2.199c-0.446,-1.168 0.625,-1.54 2.278,-1.605c1.437,0.208 2.548,0.064 2.258,-1.592c0.044,-1.033 0.414,-1.483 1.337,-0.943c1.049,0.245 1.844,0.113 1.469,-0.834c-0.25,-0.63 -0.645,-1.249 -1.593,-1.261c-0.501,-0.081 -0.949,-0.348 -1.254,-1.134c-1.114,-1.65 -2.753,-2.642 -4.234,-3.831l-6.395,9.773c-0.27,0.929 -0.441,1.843 -0.092,2.68c0.243,0.297 0.504,0.245 0.783,-0.193c0.315,-0.61 0.702,-0.661 1.143,-0.281c0.272,0.656 0.665,1.13 1.181,1.42Z" style="fill:#7c9f30;"/><path d="M155.407,66.744c2.323,-0.215 3.534,-0.879 3.12,-2.199c-0.447,-1.168 0.624,-1.54 2.277,-1.605c1.438,0.208 2.548,0.064 2.258,-1.592c0.044,-1.033 0.414,-1.483 1.337,-0.943c1.05,0.245 1.845,0.113 1.469,-0.834c-0.25,-0.631 -0.644,-1.249 -1.593,-1.261c-0.5,-0.081 -0.949,-0.349 -1.253,-1.134c-1.115,-1.65 -2.753,-2.642 -4.235,-3.831l-6.394,9.772c-0.27,0.929 -0.442,1.844 -0.093,2.681c0.244,0.297 0.504,0.244 0.784,-0.193c0.315,-0.61 0.701,-0.662 1.143,-0.281c0.271,0.656 0.665,1.129 1.18,1.42Z" style="fill:#9bc04b;"/></g><g><path d="M161.868,57.969c3.726,-2.361 8.178,-4.439 11.247,-4.769c-1.029,-1.927 -3.639,-2.976 -5.701,-3.578" style="fill:#bcb43c;"/><path d="M161.448,57.062c3.726,-2.362 8.177,-4.439 11.246,-4.769c-1.028,-1.928 -3.638,-2.976 -5.701,-3.578" style="fill:#efe65a;"/></g><g><path d="M154.918,39.814c-2.084,-0.585 -5.098,0.467 -6.726,2.346l-11.454,13.224c-1.628,1.879 -1.258,3.881 0.826,4.466l15.523,4.357c2.084,0.585 5.099,-0.467 6.727,-2.347l11.453,-13.223c1.628,-1.88 1.258,-3.881 -0.826,-4.466l-15.523,-4.357Z" style="fill:#7c4c37;"/><path d="M170.536,42.162l1.621,3.497l-4.624,-0.009l3.003,-3.488Z" style="fill:#7c4c37;"/><path d="M134.192,54.867l1.873,4.041l3.365,-3.331l-5.238,-0.71Z" style="fill:#7c4c37;"/><path d="M153.236,36.185c-2.084,-0.585 -5.098,0.467 -6.727,2.346l-11.453,13.224c-1.628,1.879 -1.258,3.881 0.826,4.466l15.523,4.356c2.084,0.585 5.098,-0.466 6.726,-2.346l11.454,-13.223c1.628,-1.88 1.258,-3.881 -0.826,-4.466l-15.523,-4.357Z" style="fill:#ebccbe;"/></g></g><path id="MOVEARM" d="M120.375,121.833c2.663,-1.444 6.193,-2.76 11.933,-3.75c3.437,-3.776 6.823,-5.447 10.187,-6.139c0.897,-6.478 5.143,-12.74 11.538,-18.863c3.344,-6.917 7.149,-13.344 11.47,-19.224c-0.689,-1.447 -1.169,-3.885 -0.597,-11.322c-1.687,-2.077 -2.761,-4.039 -3.194,-5.879c-0.54,-3.481 0.815,-4.406 2.962,-4.262c1.811,0.295 3.514,3.007 6.013,5.697c4.677,-4.273 3.963,-8.747 3.562,-13.209c-0.554,-4.234 -1.861,-7.558 -3.664,-10.281c0.143,-1.886 1.11,-2.462 2.712,-2.029c5.144,4.713 5.85,11.574 6.432,17.991l-2.597,19.459c-1.321,3.683 -2.789,6.307 -4.361,8.172c-2.021,9.616 -4.605,19.469 -8.395,29.828c-3.839,5.414 -8.2,10.624 -13.595,15.429c-3.633,10.109 -8.784,16.428 -14.818,20.544c-3.71,2.53 -7.459,3.803 -10.584,4.253l-9.651,-15.351c-2.439,-4.708 1.53,-9.374 4.647,-11.064Z" style="fill:#95563a;"/><clipPath id="_clip1"><path d="M120.375,121.833c2.663,-1.444 6.193,-2.76 11.933,-3.75c3.437,-3.776 6.823,-5.447 10.187,-6.139c0.897,-6.478 5.143,-12.74 11.538,-18.863c3.344,-6.917 7.149,-13.344 11.47,-19.224c-0.689,-1.447 -1.169,-3.885 -0.597,-11.322c-1.687,-2.077 -2.761,-4.039 -3.194,-5.879c-0.54,-3.481 0.815,-4.406 2.962,-4.262c1.811,0.295 3.514,3.007 6.013,5.697c4.677,-4.273 3.963,-8.747 3.562,-13.209c-0.554,-4.234 -1.861,-7.558 -3.664,-10.281c0.143,-1.886 1.11,-2.462 2.712,-2.029c5.144,4.713 5.85,11.574 6.432,17.991l-2.597,19.459c-1.321,3.683 -2.789,6.307 -4.361,8.172c-2.021,9.616 -4.605,19.469 -8.395,29.828c-3.839,5.414 -8.2,10.624 -13.595,15.429c-3.633,10.109 -8.784,16.428 -14.818,20.544c-3.71,2.53 -7.459,3.803 -10.584,4.253l-9.651,-15.351c-2.439,-4.708 1.53,-9.374 4.647,-11.064Z"/></clipPath><g clip-path="url(#_clip1)"><path d="M130.371,117.836c1.381,0.008 2.806,0.189 4.334,0.778c0.926,-2.106 3.305,-4.209 6.495,-6.67c1.176,-0.13 2.439,-0.284 3.034,0.408c1.601,-6.157 5.019,-12.097 11.945,-17.62c1.522,-5.018 4.849,-10.03 8.809,-15.04c-0.398,-1.792 -0.494,-3.663 -0.133,-5.656c1.546,-3.288 2.504,-7.135 2.915,-11.502c-1.769,0.909 -3.46,0.912 -5.119,0.541l-25.076,46.035l-7.204,8.726Z" style="fill:#fff;fill-opacity:0.37;"/></g></svg>