<?xml version="1.0" encoding="UTF-8" standalone="no"?><!DOCTYPE svg PUBLIC "-//W3C//DTD SVG 1.1//EN" "http://www.w3.org/Graphics/SVG/1.1/DTD/svg11.dtd"><svg width="100%" height="100%" viewBox="0 0 256 268" version="1.1" xmlns="http://www.w3.org/2000/svg" xmlns:xlink="http://www.w3.org/1999/xlink" xml:space="preserve" xmlns:serif="http://www.serif.com/" style="fill-rule:evenodd;clip-rule:evenodd;stroke-linejoin:round;stroke-miterlimit:2;"><rect id="yeater_food_2b" x="0.871" y="0.957" width="254.8" height="266.1" style="fill:none;"/><g><g><path d="M161.619,59.017c3.726,-2.362 8.177,-4.439 11.247,-4.769c-0.799,-1.498 -3.339,-2.71 -5.05,-3.349c-0.49,-0.184 -4.873,-1.19 -5.333,-1.325c-3.608,2.988 -7.793,4.207 -11.976,5.432c1.372,1.547 4.987,2.892 11.112,4.011Z" style="fill:#bcb43c;"/><path d="M161.619,58.017c3.726,-2.362 8.177,-4.439 11.247,-4.769c-0.799,-1.498 -3.339,-2.71 -5.05,-3.349c-0.49,-0.184 -4.873,-1.19 -5.333,-1.325c-3.608,2.988 -7.793,4.207 -11.976,5.432c1.372,1.547 4.987,2.892 11.112,4.011Z" style="fill:#efe65a;"/></g></g></svg>